<mxfile host="app.diagrams.net" modified="2022-06-27T03:18:41.200Z" agent="5.0 (Windows NT 10.0; Win64; x64) AppleWebKit/537.36 (KHTML, like Gecko) Chrome/102.0.0.0 Safari/537.36" etag="HllXch6gS1HVN1oYB1dN" version="20.0.3" type="github">
  <diagram id="e19FeHCHMv1Vx2RJ5wbl" name="第 1 页">
    <mxGraphModel dx="1116" dy="927" grid="1" gridSize="10" guides="1" tooltips="1" connect="1" arrows="1" fold="1" page="1" pageScale="1" pageWidth="827" pageHeight="1169" math="0" shadow="0">
      <root>
        <mxCell id="0" />
        <mxCell id="1" parent="0" />
        <mxCell id="z56inBmBugLxfNfC64i4-1" value="" style="points=[];aspect=fixed;html=1;align=center;shadow=0;dashed=0;image;image=img/lib/allied_telesis/security/DVS_Surveillance_Monitor.svg;" vertex="1" parent="1">
          <mxGeometry x="530" y="319.3" width="72.66" height="103.8" as="geometry" />
        </mxCell>
        <mxCell id="z56inBmBugLxfNfC64i4-20" style="edgeStyle=orthogonalEdgeStyle;rounded=0;orthogonalLoop=1;jettySize=auto;html=1;entryX=0.623;entryY=0.929;entryDx=0;entryDy=0;entryPerimeter=0;startArrow=classic;startFill=1;" edge="1" parent="1" source="z56inBmBugLxfNfC64i4-2" target="z56inBmBugLxfNfC64i4-11">
          <mxGeometry relative="1" as="geometry" />
        </mxCell>
        <mxCell id="z56inBmBugLxfNfC64i4-21" style="edgeStyle=orthogonalEdgeStyle;rounded=0;orthogonalLoop=1;jettySize=auto;html=1;startArrow=classic;startFill=1;" edge="1" parent="1" source="z56inBmBugLxfNfC64i4-2">
          <mxGeometry relative="1" as="geometry">
            <mxPoint x="450" y="120" as="targetPoint" />
          </mxGeometry>
        </mxCell>
        <mxCell id="z56inBmBugLxfNfC64i4-2" value="" style="points=[];aspect=fixed;html=1;align=center;shadow=0;dashed=0;image;image=img/lib/allied_telesis/media_converters/Media_Converter_Standalone.svg;" vertex="1" parent="1">
          <mxGeometry x="304.85" y="160" width="61.29" height="50" as="geometry" />
        </mxCell>
        <mxCell id="z56inBmBugLxfNfC64i4-13" style="edgeStyle=orthogonalEdgeStyle;rounded=0;orthogonalLoop=1;jettySize=auto;html=1;startArrow=classic;startFill=1;" edge="1" parent="1" source="z56inBmBugLxfNfC64i4-3" target="z56inBmBugLxfNfC64i4-6">
          <mxGeometry relative="1" as="geometry" />
        </mxCell>
        <mxCell id="z56inBmBugLxfNfC64i4-16" value="" style="edgeStyle=orthogonalEdgeStyle;rounded=0;orthogonalLoop=1;jettySize=auto;html=1;startArrow=classic;startFill=1;" edge="1" parent="1" source="z56inBmBugLxfNfC64i4-3" target="z56inBmBugLxfNfC64i4-15">
          <mxGeometry relative="1" as="geometry" />
        </mxCell>
        <mxCell id="z56inBmBugLxfNfC64i4-18" style="edgeStyle=orthogonalEdgeStyle;rounded=0;orthogonalLoop=1;jettySize=auto;html=1;startArrow=classic;startFill=1;" edge="1" parent="1" source="z56inBmBugLxfNfC64i4-3" target="z56inBmBugLxfNfC64i4-17">
          <mxGeometry relative="1" as="geometry" />
        </mxCell>
        <mxCell id="z56inBmBugLxfNfC64i4-3" value="" style="points=[];aspect=fixed;html=1;align=center;shadow=0;dashed=0;image;image=img/lib/allied_telesis/media_converters/Media_Converter_Modular.svg;" vertex="1" parent="1">
          <mxGeometry x="298.77" y="500" width="70.8" height="54.6" as="geometry" />
        </mxCell>
        <mxCell id="z56inBmBugLxfNfC64i4-5" value="" style="points=[];aspect=fixed;html=1;align=center;shadow=0;dashed=0;image;image=img/lib/allied_telesis/computer_and_terminals/Personal_Computer_with_Server.svg;" vertex="1" parent="1">
          <mxGeometry x="400" y="25" width="90" height="90" as="geometry" />
        </mxCell>
        <mxCell id="z56inBmBugLxfNfC64i4-6" value="" style="points=[];aspect=fixed;html=1;align=center;shadow=0;dashed=0;image;image=img/lib/allied_telesis/computer_and_terminals/Server_Desktop.svg;" vertex="1" parent="1">
          <mxGeometry x="90" y="610" width="78.89" height="100" as="geometry" />
        </mxCell>
        <mxCell id="z56inBmBugLxfNfC64i4-10" value="" style="edgeStyle=orthogonalEdgeStyle;rounded=0;orthogonalLoop=1;jettySize=auto;html=1;" edge="1" parent="1" source="z56inBmBugLxfNfC64i4-9" target="z56inBmBugLxfNfC64i4-2">
          <mxGeometry relative="1" as="geometry" />
        </mxCell>
        <mxCell id="z56inBmBugLxfNfC64i4-12" value="" style="edgeStyle=orthogonalEdgeStyle;rounded=0;orthogonalLoop=1;jettySize=auto;html=1;startArrow=classic;startFill=1;" edge="1" parent="1" source="z56inBmBugLxfNfC64i4-9" target="z56inBmBugLxfNfC64i4-3">
          <mxGeometry relative="1" as="geometry" />
        </mxCell>
        <mxCell id="z56inBmBugLxfNfC64i4-19" style="edgeStyle=orthogonalEdgeStyle;rounded=0;orthogonalLoop=1;jettySize=auto;html=1;startArrow=classic;startFill=1;" edge="1" parent="1" source="z56inBmBugLxfNfC64i4-9" target="z56inBmBugLxfNfC64i4-1">
          <mxGeometry relative="1" as="geometry" />
        </mxCell>
        <mxCell id="z56inBmBugLxfNfC64i4-9" value="" style="points=[];aspect=fixed;html=1;align=center;shadow=0;dashed=0;image;image=img/lib/allied_telesis/switch/Industrial_Ethernet_IE200_POE.svg;" vertex="1" parent="1">
          <mxGeometry x="300" y="322.4" width="69.57" height="97.6" as="geometry" />
        </mxCell>
        <mxCell id="z56inBmBugLxfNfC64i4-11" value="" style="points=[];aspect=fixed;html=1;align=center;shadow=0;dashed=0;image;image=img/lib/allied_telesis/computer_and_terminals/Smartphone.svg;" vertex="1" parent="1">
          <mxGeometry x="180" y="35" width="32.08" height="70" as="geometry" />
        </mxCell>
        <mxCell id="z56inBmBugLxfNfC64i4-15" value="" style="points=[];aspect=fixed;html=1;align=center;shadow=0;dashed=0;image;image=img/lib/allied_telesis/computer_and_terminals/Server_Desktop.svg;" vertex="1" parent="1">
          <mxGeometry x="294.73" y="600" width="78.89" height="100" as="geometry" />
        </mxCell>
        <mxCell id="z56inBmBugLxfNfC64i4-17" value="" style="points=[];aspect=fixed;html=1;align=center;shadow=0;dashed=0;image;image=img/lib/allied_telesis/computer_and_terminals/Server_Desktop.svg;" vertex="1" parent="1">
          <mxGeometry x="480" y="600" width="78.89" height="100" as="geometry" />
        </mxCell>
        <mxCell id="z56inBmBugLxfNfC64i4-22" value="&lt;font style=&quot;font-size: 25px;&quot;&gt;远程电脑&lt;/font&gt;" style="text;html=1;align=center;verticalAlign=middle;resizable=0;points=[];autosize=1;strokeColor=none;fillColor=none;" vertex="1" parent="1">
          <mxGeometry x="500" y="50" width="120" height="40" as="geometry" />
        </mxCell>
        <mxCell id="z56inBmBugLxfNfC64i4-23" value="&lt;font style=&quot;font-size: 25px;&quot;&gt;VPN路由&lt;/font&gt;" style="text;html=1;align=center;verticalAlign=middle;resizable=0;points=[];autosize=1;strokeColor=none;fillColor=none;" vertex="1" parent="1">
          <mxGeometry x="274.17" y="120" width="120" height="40" as="geometry" />
        </mxCell>
        <mxCell id="z56inBmBugLxfNfC64i4-24" value="&lt;font style=&quot;font-size: 25px;&quot;&gt;手机&lt;/font&gt;" style="text;html=1;align=center;verticalAlign=middle;resizable=0;points=[];autosize=1;strokeColor=none;fillColor=none;" vertex="1" parent="1">
          <mxGeometry x="94.44999999999999" y="50" width="70" height="40" as="geometry" />
        </mxCell>
        <mxCell id="z56inBmBugLxfNfC64i4-25" value="&lt;span style=&quot;font-size: 25px;&quot;&gt;本地服务器&lt;/span&gt;" style="text;html=1;align=center;verticalAlign=middle;resizable=0;points=[];autosize=1;strokeColor=none;fillColor=none;" vertex="1" parent="1">
          <mxGeometry x="149.45000000000002" y="351.2" width="150" height="40" as="geometry" />
        </mxCell>
        <mxCell id="z56inBmBugLxfNfC64i4-26" value="&lt;span style=&quot;font-size: 25px;&quot;&gt;本地电脑&lt;/span&gt;" style="text;html=1;align=center;verticalAlign=middle;resizable=0;points=[];autosize=1;strokeColor=none;fillColor=none;" vertex="1" parent="1">
          <mxGeometry x="617.66" y="351.2" width="120" height="40" as="geometry" />
        </mxCell>
        <mxCell id="z56inBmBugLxfNfC64i4-27" value="&lt;span style=&quot;font-size: 25px;&quot;&gt;局域网交换机&lt;/span&gt;" style="text;html=1;align=center;verticalAlign=middle;resizable=0;points=[];autosize=1;strokeColor=none;fillColor=none;" vertex="1" parent="1">
          <mxGeometry x="170.00000000000003" y="470" width="170" height="40" as="geometry" />
        </mxCell>
        <mxCell id="z56inBmBugLxfNfC64i4-28" value="&lt;span style=&quot;font-size: 25px;&quot;&gt;能耗系统&lt;/span&gt;" style="text;html=1;align=center;verticalAlign=middle;resizable=0;points=[];autosize=1;strokeColor=none;fillColor=none;" vertex="1" parent="1">
          <mxGeometry x="65.00000000000001" y="720" width="120" height="40" as="geometry" />
        </mxCell>
        <mxCell id="z56inBmBugLxfNfC64i4-29" value="&lt;span style=&quot;font-size: 25px;&quot;&gt;冷机控制系统&lt;/span&gt;" style="text;html=1;align=center;verticalAlign=middle;resizable=0;points=[];autosize=1;strokeColor=none;fillColor=none;" vertex="1" parent="1">
          <mxGeometry x="249.17000000000002" y="720" width="170" height="40" as="geometry" />
        </mxCell>
        <mxCell id="z56inBmBugLxfNfC64i4-30" value="&lt;span style=&quot;font-size: 25px;&quot;&gt;空调控制系统&lt;/span&gt;" style="text;html=1;align=center;verticalAlign=middle;resizable=0;points=[];autosize=1;strokeColor=none;fillColor=none;" vertex="1" parent="1">
          <mxGeometry x="434.44000000000005" y="720" width="170" height="40" as="geometry" />
        </mxCell>
      </root>
    </mxGraphModel>
  </diagram>
</mxfile>
